<svg width="32" height="32" viewBox="0 0 32 32" fill="none" xmlns="http://www.w3.org/2000/svg">
<path d="M21.99 20.35C22.3593 20.1613 22.705 19.9297 23.02 19.66C23.2254 19.4493 23.4712 19.2822 23.7427 19.1688C24.0142 19.0554 24.3058 18.998 24.6 19C24.8929 18.997 25.1833 19.054 25.4533 19.1675C25.7233 19.281 25.9672 19.4486 26.17 19.66C26.9387 20.3738 27.951 20.7673 29 20.76C29.2652 20.76 29.5196 20.6547 29.7071 20.4671C29.8946 20.2796 30 20.0252 30 19.76C30 19.4948 29.8946 19.2404 29.7071 19.0529C29.5196 18.8654 29.2652 18.76 29 18.76C28.7058 18.762 28.4142 18.7046 28.1427 18.5912C27.8712 18.4778 27.6254 18.3107 27.42 18.1C26.6492 17.3926 25.6412 17.0002 24.595 17.0002C23.5488 17.0002 22.5408 17.3926 21.77 18.1C21.76 18.11 21.74 18.12 21.73 18.13C21.8947 18.7402 21.9854 19.3681 22 20C22 20.12 22 20.24 21.99 20.35ZM23.02 23.78C23.2254 23.5693 23.4712 23.4022 23.7427 23.2888C24.0142 23.1754 24.3058 23.118 24.6 23.12C24.8929 23.117 25.1833 23.174 25.4533 23.2875C25.7233 23.401 25.9672 23.5686 26.17 23.78C26.9387 24.4938 27.951 24.8873 29 24.88C29.2652 24.88 29.5196 24.7747 29.7071 24.5871C29.8946 24.3996 30 24.1452 30 23.88C30 23.6148 29.8946 23.3604 29.7071 23.1729C29.5196 22.9854 29.2652 22.88 29 22.88C28.7058 22.882 28.4142 22.8246 28.1427 22.7112C27.8712 22.5978 27.6254 22.4307 27.42 22.22C26.6492 21.5126 25.6412 21.1202 24.595 21.1202C23.5488 21.1202 22.5408 21.5126 21.77 22.22C21.7626 22.23 21.752 22.2371 21.74 22.24C21.5393 23.1505 21.2057 24.0266 20.75 24.84C21.597 24.7264 22.3891 24.3565 23.02 23.78Z" fill="#4480F4"/>
<path d="M20.19 20.76C20.1132 20.7619 20.0364 20.7586 19.96 20.75C18.9955 20.702 18.0786 20.3161 17.37 19.66C17.1646 19.4493 16.9188 19.2822 16.6473 19.1688C16.3758 19.0554 16.0842 18.998 15.79 19C15.4973 18.998 15.2072 19.0555 14.9373 19.1689C14.6674 19.2824 14.4234 19.4494 14.22 19.66C13.4565 20.3758 12.4465 20.7697 11.4 20.76C11.1348 20.76 10.8804 20.6547 10.6929 20.4671C10.5054 20.2796 10.4 20.0252 10.4 19.76C10.4 19.4948 10.5054 19.2404 10.6929 19.0529C10.8804 18.8654 11.1348 18.76 11.4 18.76C11.6926 18.761 11.9824 18.7031 12.2522 18.5897C12.5219 18.4764 12.766 18.3098 12.97 18.1C13.7408 17.3926 14.7488 17.0002 15.795 17.0002C16.8412 17.0002 17.8492 17.3926 18.62 18.1C18.9476 18.4258 19.3658 18.6453 19.82 18.73C19.9422 18.7512 20.066 18.7612 20.19 18.76C20.4757 18.7627 20.759 18.7084 21.0235 18.6002C21.2879 18.492 21.5281 18.3322 21.73 18.13C20.29 12.54 13.64 3.52001 12.8 2.40001C12.7023 2.28267 12.58 2.18827 12.4417 2.12348C12.3035 2.05869 12.1527 2.0251 12 2.0251C11.8473 2.0251 11.6965 2.05869 11.5583 2.12348C11.42 2.18827 11.2977 2.28267 11.2 2.40001C10.26 3.66001 2 14.85 2 20C2.00027 22.2169 2.73717 24.3708 4.09487 26.1232C5.45257 27.8757 7.3541 29.1273 9.5006 29.6814C11.6471 30.2355 13.9168 30.0606 15.9531 29.1842C17.9894 28.3079 19.6768 26.7798 20.75 24.84C20.5648 24.8693 20.3775 24.8827 20.19 24.88C19.6322 24.8918 19.0788 24.7791 18.57 24.55C18.1357 24.3512 17.7317 24.0919 17.37 23.78C17.1646 23.5693 16.9188 23.4022 16.6473 23.2888C16.3758 23.1754 16.0842 23.118 15.79 23.12C15.4973 23.118 15.2072 23.1755 14.9373 23.2889C14.6674 23.4024 14.4234 23.5694 14.22 23.78C13.4565 24.4958 12.4465 24.8897 11.4 24.88C11.1348 24.88 10.8804 24.7747 10.6929 24.5871C10.5054 24.3996 10.4 24.1452 10.4 23.88C10.4 23.6148 10.5054 23.3604 10.6929 23.1729C10.8804 22.9854 11.1348 22.88 11.4 22.88C11.6926 22.881 11.9824 22.8231 12.2522 22.7097C12.5219 22.5964 12.766 22.4298 12.97 22.22C13.7408 21.5126 14.7488 21.1202 15.795 21.1202C16.8412 21.1202 17.8492 21.5126 18.62 22.22C18.8761 22.4595 19.1745 22.6494 19.5 22.78C19.7234 22.8492 19.9562 22.8829 20.19 22.88C20.4781 22.8832 20.764 22.8282 21.0303 22.7182C21.2967 22.6083 21.5381 22.4456 21.74 22.24C21.8896 21.6206 21.9734 20.9871 21.99 20.35C21.4328 20.6326 20.8146 20.7734 20.19 20.76ZM26.29 3.39001C26.193 3.27491 26.0721 3.1824 25.9356 3.11893C25.7992 3.05546 25.6505 3.02258 25.5 3.02258C25.3495 3.02258 25.2008 3.05546 25.0644 3.11893C24.9279 3.1824 24.807 3.27491 24.71 3.39001C24.09 4.20001 21 8.34001 21 10.5C21 11.6935 21.4741 12.8381 22.318 13.682C23.1619 14.5259 24.3065 15 25.5 15C26.6935 15 27.8381 14.5259 28.682 13.682C29.5259 12.8381 30 11.6935 30 10.5C30 8.34001 26.91 4.20001 26.29 3.39001ZM25.5 13.5C24.7044 13.5 23.9413 13.1839 23.3787 12.6213C22.8161 12.0587 22.5 11.2957 22.5 10.5C22.5 10.3674 22.5527 10.2402 22.6464 10.1465C22.7402 10.0527 22.8674 10 23 10C23.1326 10 23.2598 10.0527 23.3536 10.1465C23.4473 10.2402 23.5 10.3674 23.5 10.5C23.5 11.0304 23.7107 11.5391 24.0858 11.9142C24.4609 12.2893 24.9696 12.5 25.5 12.5C25.6326 12.5 25.7598 12.5527 25.8536 12.6465C25.9473 12.7402 26 12.8674 26 13C26 13.1326 25.9473 13.2598 25.8536 13.3536C25.7598 13.4473 25.6326 13.5 25.5 13.5Z" fill="#4480F4"/>
</svg>
