<svg width="32" height="32" viewBox="0 0 32 32" fill="none" xmlns="http://www.w3.org/2000/svg">
<g clip-path="url(#clip0_4_306)">
<path d="M21.1444 16.4694V5.14437C21.1444 3.78 20.6024 2.47151 19.6377 1.50675C18.6729 0.541995 17.3644 0 16.0001 0C14.6357 0 13.3272 0.541995 12.3624 1.50675C11.3977 2.47151 10.8557 3.78 10.8557 5.14437V16.4694C9.77695 17.2711 8.90098 18.3143 8.29796 19.5154C7.69495 20.7166 7.38166 22.0422 7.38318 23.3862C7.38318 28.1006 11.2244 31.9669 15.9382 32H16.0007C17.812 31.9999 19.5773 31.429 21.0457 30.3685C22.5141 29.3079 23.611 27.8117 24.1806 26.0922C24.7501 24.3727 24.7634 22.5175 24.2185 20.7901C23.6735 19.0626 22.5982 17.5508 21.1451 16.4694H21.1444ZM16.0001 29.625H15.9551C14.8901 29.6167 13.845 29.3362 12.9191 28.8102C11.9931 28.2843 11.2169 27.5302 10.6644 26.6198C10.1119 25.7094 9.80142 24.6728 9.76236 23.6086C9.72331 22.5444 9.95703 21.4878 10.4413 20.5394C10.8806 19.6882 11.5076 18.9481 12.2751 18.375L13.2307 17.6631V5.14437C13.2307 4.40989 13.5225 3.70549 14.0418 3.18613C14.5612 2.66677 15.2656 2.375 16.0001 2.375C16.7345 2.375 17.4389 2.66677 17.9583 3.18613C18.4777 3.70549 18.7694 4.40989 18.7694 5.14437V17.6619L19.7251 18.375C20.4924 18.9482 21.1193 19.6886 21.5582 20.54C22.0109 21.4196 22.2454 22.3951 22.2419 23.3844C22.2395 25.0389 21.581 26.625 20.4109 27.7949C19.2408 28.9647 17.6546 29.6229 16.0001 29.625Z" fill="#F6CB5F"/>
<path d="M17.125 19.0375V9.38375C17.125 9.08538 17.0065 8.79923 16.7955 8.58825C16.5845 8.37728 16.2984 8.25875 16 8.25875C15.7016 8.25875 15.4155 8.37728 15.2045 8.58825C14.9935 8.79923 14.875 9.08538 14.875 9.38375V19.0375C13.8174 19.3113 12.8959 19.9613 12.2832 20.8657C11.6705 21.7701 11.4086 22.867 11.5466 23.9507C11.6846 25.0344 12.213 26.0306 13.0328 26.7526C13.8526 27.4747 14.9076 27.873 16 27.873C17.0925 27.873 18.1474 27.4747 18.9672 26.7526C19.787 26.0306 20.3154 25.0344 20.4534 23.9507C20.5914 22.867 20.3295 21.7701 19.7168 20.8657C19.1041 19.9613 18.1826 19.3113 17.125 19.0375ZM23.6675 6.25H28.1875C28.4859 6.25 28.772 6.13147 28.983 5.9205C29.194 5.70952 29.3125 5.42337 29.3125 5.125C29.3125 4.82663 29.194 4.54048 28.983 4.3295C28.772 4.11853 28.4859 4 28.1875 4H23.6675C23.3691 4 23.083 4.11853 22.872 4.3295C22.661 4.54048 22.5425 4.82663 22.5425 5.125C22.5425 5.42337 22.661 5.70952 22.872 5.9205C23.083 6.13147 23.3691 6.25 23.6675 6.25ZM28.1875 13.6412H23.6675C23.3691 13.6412 23.083 13.7598 22.872 13.9708C22.661 14.1817 22.5425 14.4679 22.5425 14.7662C22.5425 15.0646 22.661 15.3508 22.872 15.5617C23.083 15.7727 23.3691 15.8912 23.6675 15.8912H28.1875C28.4859 15.8912 28.772 15.7727 28.983 15.5617C29.194 15.3508 29.3125 15.0646 29.3125 14.7662C29.3125 14.4679 29.194 14.1817 28.983 13.9708C28.772 13.7598 28.4859 13.6412 28.1875 13.6412ZM23.6675 11.0712H25.9281C26.2265 11.0712 26.5126 10.9527 26.7236 10.7417C26.9346 10.5308 27.0531 10.2446 27.0531 9.94625C27.0531 9.64788 26.9346 9.36173 26.7236 9.15075C26.5126 8.93978 26.2265 8.82125 25.9281 8.82125H23.6675C23.5198 8.82125 23.3735 8.85035 23.237 8.90689C23.1005 8.96342 22.9765 9.04629 22.872 9.15075C22.7675 9.25522 22.6847 9.37924 22.6281 9.51573C22.5716 9.65222 22.5425 9.79851 22.5425 9.94625C22.5425 10.094 22.5716 10.2403 22.6281 10.3768C22.6847 10.5133 22.7675 10.6373 22.872 10.7417C22.9765 10.8462 23.1005 10.9291 23.237 10.9856C23.3735 11.0422 23.5198 11.0712 23.6675 11.0712Z" fill="#F6CB5F"/>
</g>
<defs>
<clipPath id="clip0_4_306">
<rect width="32" height="32" fill="white"/>
</clipPath>
</defs>
</svg>
