<svg width="32" height="32" viewBox="0 0 32 32" fill="none" xmlns="http://www.w3.org/2000/svg">
<path d="M15.4559 7.73333H16.5226V9.33333H15.9893V21.0667H22.9226C23.2159 21.0667 23.4559 20.8267 23.4559 20.5333V18.9333H25.0559C25.3493 18.9333 25.5893 18.6933 25.5893 18.4V16.8H28.2559C28.5493 16.8 28.7893 16.56 28.7893 16.2667V14.1333C28.7893 13.84 28.5493 13.6 28.2559 13.6H25.5893V12C25.5893 11.7067 25.3493 11.4667 25.0559 11.4667H23.4559V9.86666C23.4559 9.57333 23.2159 9.33333 22.9226 9.33333H19.7226V7.73333H20.7893C21.0826 7.73333 21.3226 7.49333 21.3226 7.19999V5.06666C21.3226 4.77333 21.0826 4.53333 20.7893 4.53333H15.4559C15.1626 4.53333 14.9226 4.77333 14.9226 5.06666V7.19999C14.9226 7.49333 15.1626 7.73333 15.4559 7.73333ZM11.7226 9.33333H14.9226V21.0667H11.7226V9.33333ZM7.45594 15.7333H3.21594C3.24794 16.096 3.31194 16.4533 3.41328 16.8H7.45594C7.74928 16.8 7.98928 17.04 7.98928 17.3333C7.98928 17.6267 7.74928 17.8667 7.45594 17.8667H3.82928C4.79994 19.7653 6.77861 21.0667 9.05594 21.0667H10.6559V9.33333H9.05594C6.77861 9.33333 4.79994 10.6347 3.82928 12.5333H7.45594C7.74928 12.5333 7.98928 12.7733 7.98928 13.0667C7.98928 13.36 7.74928 13.6 7.45594 13.6H3.41328C3.31194 13.9467 3.24794 14.304 3.21594 14.6667H7.45594C7.74928 14.6667 7.98928 14.9067 7.98928 15.2C7.98928 15.4933 7.74928 15.7333 7.45594 15.7333ZM22.9226 26.9333V24.8C22.9226 24.5067 22.6826 24.2667 22.3893 24.2667H20.6186L19.7813 22.1333H8.99728L8.15994 24.2667H6.38928C6.09594 24.2667 5.85594 24.5067 5.85594 24.8V26.9333C5.85594 27.2267 6.09594 27.4667 6.38928 27.4667H22.3893C22.6826 27.4667 22.9226 27.2267 22.9226 26.9333Z" fill="#44C7F4"/>
</svg>
