<svg width="32" height="32" viewBox="0 0 32 32" fill="none" xmlns="http://www.w3.org/2000/svg">
<path fill-rule="evenodd" clip-rule="evenodd" d="M20.8625 4.59651L20.539 4.50101C20.4232 4.50729 20.3132 4.55379 20.228 4.63251L13.177 11.1325C13.1273 11.178 13.0872 11.2331 13.0594 11.2945C13.0315 11.3559 13.0165 11.4224 13.0151 11.4898C13.0137 11.5572 13.026 11.6242 13.0512 11.6867C13.0765 11.7493 13.1142 11.806 13.162 11.8535L15.3085 14L10.662 18.6465C10.5683 18.7403 10.5156 18.8674 10.5156 19C10.5156 19.1326 10.5683 19.2597 10.662 19.3535L12.821 21.512L7.77903 26.919C7.71782 26.9845 7.67534 27.0653 7.65605 27.1528C7.63675 27.2404 7.64135 27.3315 7.66936 27.4166C7.69738 27.5018 7.74777 27.5779 7.81527 27.6369C7.88277 27.6959 7.96489 27.7356 8.05303 27.752L8.39653 27.692L18.2465 21.938C18.3156 21.8976 18.374 21.8411 18.4167 21.7734C18.4595 21.7057 18.4854 21.6288 18.4922 21.549C18.499 21.4692 18.4865 21.389 18.4559 21.315C18.4252 21.2411 18.3773 21.1756 18.316 21.124L15.7545 18.9685L20.3695 14.3535C20.4633 14.2597 20.5159 14.1326 20.5159 14C20.5159 13.8674 20.4633 13.7403 20.3695 13.6465L18.1175 11.3945L21.0195 5.21251C21.0687 5.10752 21.0799 4.98874 21.0512 4.87642C21.0226 4.76409 20.9559 4.66517 20.8625 4.59651ZM28.7955 8.11101L28.472 8.01501C28.3563 8.02153 28.2464 8.06801 28.161 8.14651L23.3365 12.5945C23.2868 12.64 23.2467 12.6951 23.2189 12.7565C23.191 12.8179 23.176 12.8844 23.1746 12.9518C23.1732 13.0192 23.1855 13.0862 23.2107 13.1487C23.236 13.2113 23.2737 13.268 23.3215 13.3155L24.679 14.6725L21.611 17.7405C21.5173 17.8343 21.4646 17.9614 21.4646 18.094C21.4646 18.2266 21.5173 18.3537 21.611 18.4475L22.9805 19.8165L19.6345 23.405C19.5731 23.4704 19.5305 23.5511 19.5111 23.6387C19.4917 23.7263 19.4962 23.8174 19.5243 23.9026C19.5523 23.9878 19.6028 24.0639 19.6704 24.1228C19.738 24.1818 19.8203 24.2214 19.9085 24.2375L20.252 24.1775L26.992 20.2405C27.0611 20.2001 27.1195 20.1436 27.1623 20.0759C27.205 20.0082 27.2309 19.9313 27.2377 19.8515C27.2445 19.7717 27.232 19.6915 27.2014 19.6175C27.1707 19.5436 27.1228 19.4781 27.0615 19.4265L25.4405 18.062L28.4765 15.026C28.5703 14.9322 28.6229 14.8051 28.6229 14.6725C28.6229 14.5399 28.5703 14.4128 28.4765 14.319L27.014 12.8565L28.9525 8.72701C29.0019 8.62205 29.0132 8.50322 28.9845 8.39084C28.9559 8.27847 28.8891 8.17955 28.7955 8.11101ZM9.00703 10.5155L8.68353 10.42C8.56772 10.4263 8.45772 10.4728 8.37253 10.5515L5.07103 13.5945C5.02171 13.6403 4.98211 13.6956 4.95458 13.7571C4.92706 13.8185 4.91218 13.8849 4.91083 13.9522C4.90948 14.0195 4.92168 14.0864 4.94671 14.1489C4.97174 14.2114 5.00909 14.2682 5.05653 14.316L5.87353 15.133L3.88603 17.12C3.79239 17.2139 3.7398 17.3411 3.7398 17.4738C3.7398 17.6064 3.79239 17.7336 3.88603 17.8275L4.71503 18.6565L2.52953 21C2.46864 21.0657 2.42646 21.1464 2.40738 21.2339C2.3883 21.3214 2.39302 21.4124 2.42104 21.4975C2.44907 21.5825 2.49938 21.6585 2.56674 21.7175C2.63409 21.7765 2.71603 21.8164 2.80403 21.833L3.14753 21.773L7.75903 19.079C7.82816 19.0386 7.88658 18.9822 7.92937 18.9145C7.97216 18.8469 7.99808 18.7699 8.00494 18.6901C8.0118 18.6104 7.9994 18.5301 7.96879 18.4561C7.93818 18.3822 7.89025 18.3166 7.82903 18.265L6.85103 17.442L8.80703 15.4865C9.00203 15.291 9.00203 14.9745 8.80703 14.779L7.88453 13.857L9.16403 11.1315C9.21336 11.0266 9.22467 10.9077 9.19603 10.7953C9.16739 10.683 9.10058 10.584 9.00703 10.5155Z" fill="#9144F4"/>
</svg>
