<svg width="32" height="32" viewBox="0 0 32 32" fill="none" xmlns="http://www.w3.org/2000/svg">
<g clip-path="url(#clip0_4_328)">
<path d="M9.71428 13.7143C9.71428 9.99544 5.61142 6.65544 5.14285 6.28572C4.58685 6.72286 -0.278865 10.6977 0.701135 14.832C0.914651 15.6922 1.37495 16.4713 2.02542 17.0733C2.67589 17.6753 3.48815 18.0741 4.36228 18.2206C5.13467 18.3509 5.92752 18.2827 6.66628 18.0223L6.68228 18.0166C7.56973 17.6998 8.33748 17.1163 8.8803 16.3461C9.42311 15.5758 9.71442 14.6566 9.71428 13.7143ZM4.64114 17.1029C4.60991 17.103 4.57873 17.1004 4.54799 17.0949C3.89584 16.9866 3.28956 16.6901 2.80375 16.2418C2.31795 15.7934 1.97381 15.2128 1.81371 14.5714C1.79355 14.4975 1.78848 14.4202 1.79879 14.3443C1.8091 14.2683 1.83459 14.1952 1.87373 14.1293C1.91287 14.0634 1.96487 14.0061 2.02663 13.9607C2.08839 13.9153 2.15866 13.8828 2.23324 13.8651C2.30782 13.8475 2.38519 13.845 2.46075 13.8578C2.53631 13.8707 2.60852 13.8986 2.67308 13.9399C2.73763 13.9812 2.79321 14.0351 2.83652 14.0983C2.87982 14.1616 2.90996 14.2329 2.92513 14.308C3.03212 14.7307 3.2602 15.113 3.58138 15.4078C3.90256 15.7027 4.30286 15.8974 4.73313 15.968C4.87486 15.9911 5.0027 16.0667 5.09122 16.1797C5.17974 16.2928 5.22245 16.435 5.21086 16.5782C5.19926 16.7213 5.13421 16.8548 5.02864 16.9521C4.92307 17.0495 4.78473 17.1029 4.64114 17.1029Z" fill="#44F456"/>
<path d="M21.7594 13.292C20.1557 10.6418 18.0924 8.29866 15.6663 6.37257C15.6 6.31982 15.5182 6.29054 15.4335 6.28929C15.3488 6.28805 15.2661 6.31493 15.1983 6.36571C13.3948 7.79775 11.7818 9.45441 10.3983 11.2954C10.6924 12.0684 10.8477 12.8873 10.8572 13.7143C10.8599 14.825 10.5371 15.9121 9.92883 16.8415C9.32053 17.7708 8.45331 18.5015 7.4343 18.9434C7.43113 19.5916 7.50478 20.2378 7.65373 20.8686C8.03571 22.366 8.84603 23.7196 9.98549 24.7635C11.125 25.8075 12.5441 26.4965 14.0692 26.7463C16.416 27.1411 18.8177 26.4834 20.6366 24.948C21.5108 24.2083 22.2134 23.287 22.6956 22.2483C23.1777 21.2096 23.4279 20.0783 23.4286 18.9331C23.3674 16.9404 22.7924 14.9972 21.7594 13.292ZM14.3429 25.6274C14.3119 25.6275 14.2809 25.625 14.2503 25.62C12.947 25.4083 11.7339 24.8205 10.76 23.9289C9.78607 23.0373 9.09374 21.8807 8.76802 20.6011C8.7351 20.4546 8.7612 20.301 8.84067 20.1735C8.92014 20.0461 9.0466 19.955 9.19268 19.9201C9.33876 19.8852 9.49272 19.9092 9.62124 19.9869C9.74977 20.0646 9.84252 20.1898 9.87945 20.3354C10.1512 21.3966 10.7271 22.3553 11.5363 23.0936C12.3455 23.8319 13.3527 24.3178 14.4343 24.4914C14.5767 24.5137 14.7055 24.589 14.7948 24.7022C14.8841 24.8154 14.9273 24.9581 14.9157 25.1018C14.9041 25.2456 14.8387 25.3796 14.7324 25.4771C14.6262 25.5745 14.487 25.6282 14.3429 25.6274ZM22.8572 24.2034V28.5714C22.8572 29.4807 23.2184 30.3528 23.8614 30.9958C24.5043 31.6388 25.3764 32 26.2857 32C27.195 32 28.0671 31.6388 28.7101 30.9958C29.3531 30.3528 29.7143 29.4807 29.7143 28.5714V25.1429H27.4286C27.277 25.1429 27.1317 25.0826 27.0245 24.9755C26.9174 24.8683 26.8572 24.723 26.8572 24.5714C26.8572 24.4199 26.9174 24.2745 27.0245 24.1674C27.1317 24.0602 27.277 24 27.4286 24H29.7143V22.2857H27.4286C27.277 22.2857 27.1317 22.2255 27.0245 22.1183C26.9174 22.0112 26.8572 21.8658 26.8572 21.7143C26.8572 21.5627 26.9174 21.4174 27.0245 21.3102C27.1317 21.2031 27.277 21.1429 27.4286 21.1429H29.7143V19.4286H24.5446C24.4511 21.149 23.8654 22.8063 22.8572 24.2034ZM25.1429 28.568C25.1327 28.7209 25.1553 28.8741 25.2091 29.0176C25.2629 29.161 25.3467 29.2913 25.4549 29.3998C25.563 29.5083 25.6931 29.5925 25.8364 29.6467C25.9796 29.7009 26.1328 29.724 26.2857 29.7143C26.4373 29.7143 26.5826 29.7745 26.6898 29.8816C26.797 29.9888 26.8572 30.1342 26.8572 30.2857C26.8572 30.4373 26.797 30.5826 26.6898 30.6898C26.5826 30.7969 26.4373 30.8571 26.2857 30.8571C25.9832 30.866 25.682 30.8129 25.4007 30.7012C25.1193 30.5894 24.8638 30.4214 24.6498 30.2074C24.4358 29.9933 24.2677 29.7378 24.156 29.4565C24.0442 29.1752 23.9912 28.874 24 28.5714C23.9996 28.4199 24.0593 28.2743 24.1662 28.1669C24.273 28.0594 24.4182 27.9987 24.5697 27.9983C24.7213 27.9978 24.8668 28.0576 24.9743 28.1644C25.0818 28.2713 25.1424 28.4164 25.1429 28.568ZM22.8572 12.9343C23.8049 14.5733 24.3825 16.3998 24.5497 18.2857H29.7143V16.5714H27.4286C27.277 16.5714 27.1317 16.5112 27.0245 16.4041C26.9174 16.2969 26.8572 16.1515 26.8572 16C26.8572 15.8484 26.9174 15.7031 27.0245 15.5959C27.1317 15.4888 27.277 15.4286 27.4286 15.4286H29.7143V13.7143H27.4286C27.277 13.7143 27.1317 13.6541 27.0245 13.5469C26.9174 13.4397 26.8572 13.2944 26.8572 13.1429C26.8572 12.9913 26.9174 12.846 27.0245 12.7388C27.1317 12.6316 27.277 12.5714 27.4286 12.5714H29.7143V10.8571H27.4286C27.277 10.8571 27.1317 10.7969 27.0245 10.6898C26.9174 10.5826 26.8572 10.4373 26.8572 10.2857C26.8572 10.1342 26.9174 9.98881 27.0245 9.88165C27.1317 9.77448 27.277 9.71428 27.4286 9.71428H29.7143V8H27.4286C27.277 8 27.1317 7.93979 27.0245 7.83263C26.9174 7.72546 26.8572 7.58012 26.8572 7.42857C26.8572 7.27701 26.9174 7.13167 27.0245 7.02451C27.1317 6.91734 27.277 6.85714 27.4286 6.85714H29.7143V5.14285H22.8572V12.9343Z" fill="#44F456"/>
<path d="M30.2857 0H22.2857C21.6545 0 21.1428 0.511675 21.1428 1.14286V2.85714C21.1428 3.48833 21.6545 4 22.2857 4H30.2857C30.9169 4 31.4285 3.48833 31.4285 2.85714V1.14286C31.4285 0.511675 30.9169 0 30.2857 0Z" fill="#44F456"/>
</g>
<defs>
<clipPath id="clip0_4_328">
<rect width="32" height="32" fill="white"/>
</clipPath>
</defs>
</svg>
